<?xml version="1.0" standalone="no"?>
<!DOCTYPE svg PUBLIC "-//W3C//DTD SVG 20010904//EN"
 "http://www.w3.org/TR/2001/REC-SVG-20010904/DTD/svg10.dtd">
<svg version="1.0" xmlns="http://www.w3.org/2000/svg"
 width="500.000000pt" height="500.000000pt" viewBox="0 0 500.000000 500.000000"
 preserveAspectRatio="xMidYMid meet">
<metadata>
Created by potrace 1.14, written by Peter Selinger 2001-2017
</metadata>
<g transform="translate(0.000000,500.000000) scale(0.100000,-0.100000)"
fill="#000000" stroke="none">
<path d="M4095 3531 c-57 -9 -116 -32 -230 -90 -44 -23 -83 -41 -87 -41 -5 0
-8 18 -8 39 0 61 -7 71 -50 71 -22 0 -42 -4 -45 -10 -3 -5 -22 -10 -40 -10
-43 0 -48 -17 -37 -117 l8 -72 -80 -40 c-102 -49 -174 -81 -251 -110 -33 -13
-73 -29 -90 -36 -204 -88 -651 -170 -885 -163 -88 2 -105 1 -108 -12 -4 -25
102 -63 268 -97 117 -24 422 -24 532 0 75 17 152 39 193 56 11 5 36 15 55 22
83 29 325 167 350 199 3 3 21 17 40 30 19 14 42 32 51 40 70 67 226 180 249
180 5 0 10 4 10 8 0 17 178 72 233 72 84 0 190 -46 259 -112 122 -116 211
-304 338 -713 17 -55 38 -116 47 -135 19 -42 74 -96 105 -103 13 -3 33 -8 44
-12 34 -10 36 19 6 62 -25 35 -33 50 -62 116 -5 12 -42 117 -81 232 -39 116
-75 214 -80 220 -5 5 -9 15 -9 22 0 19 -91 200 -130 257 -55 81 -153 171 -229
209 -57 29 -82 36 -152 40 -46 3 -106 2 -134 -2z"/>
<path d="M33 3275 c-7 -8 -13 -21 -13 -30 0 -9 -4 -24 -10 -34 -22 -41 37
-141 83 -141 9 0 17 -4 17 -10 0 -5 6 -10 14 -10 8 0 34 -10 58 -21 23 -12 52
-25 63 -29 97 -35 109 -49 117 -143 9 -104 23 -237 37 -352 6 -49 16 -135 22
-190 5 -55 15 -129 20 -165 6 -36 12 -94 15 -130 3 -36 9 -87 15 -113 5 -26 9
-61 9 -77 0 -37 30 -100 47 -100 7 0 13 -4 13 -10 0 -5 23 -10 50 -10 l50 0 0
58 c0 60 -33 376 -50 473 -6 30 -10 78 -10 107 0 28 -4 73 -9 99 -5 26 -15
107 -21 178 -7 72 -14 141 -16 155 -2 14 -10 87 -19 163 -16 135 -29 187 -48
187 -5 0 -21 8 -35 18 -15 10 -54 29 -87 42 -33 13 -64 27 -70 32 -5 4 -17 8
-27 8 -10 0 -18 5 -18 10 0 6 -8 10 -18 10 -10 0 -22 3 -26 7 -12 13 -81 33
-111 32 -16 0 -36 -6 -42 -14z"/>
<path d="M3973 3184 c-22 -23 -25 -32 -21 -80 3 -30 10 -60 16 -66 18 -18 121
-16 133 2 12 18 2 139 -13 157 -19 23 -86 16 -115 -13z"/>
<path d="M1830 3190 c12 -7 11 -13 -10 -34 -13 -15 -19 -26 -14 -26 5 0 15 9
22 20 18 30 31 25 52 -22 22 -51 27 -43 5 9 -15 35 -41 62 -60 63 -5 0 -3 -5
5 -10z"/>
<path d="M4178 3189 c-15 -8 -18 -24 -18 -80 0 -86 10 -99 79 -99 47 0 51 2
56 28 3 15 12 48 20 75 8 26 12 53 9 61 -8 22 -116 33 -146 15z"/>
<path d="M1911 3146 c13 -14 26 -23 28 -20 6 6 -30 44 -42 44 -5 0 1 -11 14
-24z"/>
<path d="M1944 3095 c19 -89 22 -80 -34 -93 -29 -7 -69 -12 -91 -12 -37 0 -39
1 -39 33 0 24 -3 28 -10 17 -5 -8 -10 -25 -10 -36 0 -16 -8 -23 -31 -28 -50
-10 -69 -7 -63 8 5 14 -23 26 -62 26 -24 0 -23 15 -38 -480 l-5 -155 49 -24
c36 -16 60 -22 87 -18 93 13 182 27 352 54 l33 5 -6 117 c-3 64 -9 203 -12
309 l-6 192 -40 0 c-31 0 -39 3 -35 15 4 8 2 17 -4 20 -5 4 -16 21 -24 38 -8
18 -13 23 -11 12z"/>
<path d="M1711 3064 c0 -11 3 -14 6 -6 3 7 2 16 -1 19 -3 4 -6 -2 -5 -13z"/>
<path d="M1901 3064 c0 -11 3 -14 6 -6 3 7 2 16 -1 19 -3 4 -6 -2 -5 -13z"/>
<path d="M638 2958 c-28 -7 -38 -16 -42 -36 -10 -43 25 -379 49 -489 7 -30 42
-52 112 -68 76 -19 550 -21 635 -3 96 20 102 32 106 204 l3 144 -218 -2 -218
-3 0 -50 0 -50 133 -3 132 -3 0 -59 0 -60 -273 0 -274 0 -16 138 c-10 75 -17
151 -17 169 0 31 1 31 58 37 31 3 161 7 287 8 l230 3 3 -28 3 -28 72 6 c96 9
97 9 97 47 0 39 -30 92 -60 108 -42 23 -728 38 -802 18z"/>
<path d="M3983 2958 c-14 -17 -21 -127 -9 -131 5 -2 39 2 75 8 l66 10 0 60 0
60 -61 3 c-41 2 -64 -1 -71 -10z"/>
<path d="M4171 2956 c-16 -20 -9 -77 13 -103 16 -19 30 -23 78 -23 l58 0 0 38
c0 20 -9 52 -20 70 -18 29 -24 32 -69 32 -29 0 -53 -6 -60 -14z"/>
<path d="M2223 2703 c-10 -29 -74 -185 -93 -228 -31 -71 -33 -85 -13 -86 10 0
30 -2 44 -4 34 -4 44 3 58 48 11 34 34 54 29 25 -2 -9 13 -14 45 -16 40 -3 49
-7 62 -31 12 -24 21 -29 55 -29 54 -1 59 14 27 91 -13 34 -40 100 -58 147 -19
47 -38 88 -44 92 -5 4 -32 8 -58 8 -36 0 -49 -4 -54 -17z"/>
<path d="M2504 2706 c-2 -6 -3 -79 -2 -161 l3 -150 45 0 45 0 5 69 5 69 32
-39 c89 -109 82 -104 134 -104 27 0 49 3 49 8 0 4 -16 27 -35 51 -38 47 -43
61 -22 61 36 0 50 120 20 170 -19 33 -54 41 -186 39 -59 -1 -90 -5 -93 -13z"/>
<path d="M3917 2688 c-8 -18 -29 -69 -46 -113 -18 -44 -36 -89 -40 -100 -22
-53 -31 -76 -31 -80 0 -3 22 -5 48 -5 43 0 50 3 60 25 7 14 12 32 12 39 0 6 7
21 15 32 15 18 16 17 10 -13 l-7 -33 46 0 c40 0 48 -3 56 -25 8 -22 16 -25 55
-25 25 0 45 3 45 8 0 7 -24 75 -83 235 -14 38 -27 71 -30 74 -3 2 -26 7 -50
10 -44 4 -46 3 -60 -29z"/>
<path d="M4157 2714 c-4 -4 -7 -79 -7 -166 l0 -158 45 0 44 0 3 71 3 70 58
-70 c56 -69 60 -71 103 -71 24 0 44 4 44 9 0 8 -33 54 -58 80 -12 12 -10 17
10 32 21 16 23 26 23 93 0 106 -6 110 -148 114 -62 2 -115 0 -120 -4z"/>
<path d="M2994 2689 c-16 -18 -19 -37 -19 -141 0 -161 -3 -158 187 -158 134 0
172 7 190 34 4 6 8 44 8 84 l0 72 -101 0 -100 0 3 -27 c3 -27 6 -28 61 -31 57
-3 58 -4 55 -30 l-3 -27 -105 0 -105 0 -3 93 -3 92 111 0 c103 0 110 -1 110
-20 0 -23 17 -25 55 -8 32 14 33 51 3 72 -18 13 -53 16 -174 16 -141 0 -152
-1 -170 -21z"/>
<path d="M3395 2688 c-3 -8 -4 -77 -3 -153 l3 -140 53 -3 52 -3 0 60 0 61 80
0 80 0 0 -61 0 -60 53 3 52 3 0 150 0 150 -52 3 c-58 3 -56 6 -53 -65 l2 -43
-82 0 -82 0 4 53 3 52 -53 3 c-37 2 -54 -1 -57 -10z"/>
<path d="M683 2318 c-10 -12 0 -153 12 -185 3 -10 85 -13 342 -15 332 -3 338
-3 335 -23 -2 -11 -5 -38 -8 -60 -3 -22 -7 -50 -10 -62 l-4 -23 -310 0 c-170
0 -311 -4 -314 -8 -3 -5 12 -133 24 -189 0 -2 164 -3 364 -3 l364 0 5 33 c3
17 10 50 16 72 35 140 53 241 57 320 5 108 -4 124 -84 143 -77 17 -776 17
-789 0z"/>
<path d="M1700 2158 c-11 -18 -20 -41 -20 -50 0 -10 -4 -18 -10 -18 -5 0 -10
-7 -10 -15 0 -8 -10 -37 -21 -63 -46 -103 -53 -119 -76 -176 -33 -85 -32 -86
35 -86 60 0 82 11 82 42 0 10 5 18 10 18 6 0 10 7 10 15 0 8 2 15 4 15 2 0 20
-7 39 -15 20 -8 54 -15 76 -15 34 0 42 -4 53 -27 l13 -28 260 0 260 0 3 57 3
57 -33 6 c-18 3 -57 3 -85 1 -42 -3 -53 -1 -53 11 0 8 38 52 85 97 85 81 85
81 85 132 0 27 -5 55 -12 62 -14 14 -335 17 -356 3 -19 -11 -25 -83 -10 -103
9 -12 35 -18 87 -22 41 -3 76 -8 78 -10 3 -3 -37 -46 -87 -96 l-92 -91 5 -45
c4 -43 -8 -61 -19 -26 -7 22 -16 45 -42 107 -12 28 -27 68 -34 90 -7 22 -15
42 -18 45 -3 3 -11 20 -17 38 -7 17 -19 47 -25 65 -20 49 -32 57 -92 57 -53 0
-58 -2 -76 -32z"/>
<path d="M2593 2171 c-11 -11 -42 -75 -67 -143 -26 -68 -56 -142 -66 -164 -10
-23 -22 -58 -26 -78 l-6 -37 62 3 63 3 24 65 c12 36 26 72 30 80 3 8 14 35 23
60 18 50 29 54 47 20 10 -20 7 -27 -22 -55 -39 -40 -51 -84 -27 -102 8 -7 39
-13 67 -13 47 0 51 -2 62 -30 11 -29 14 -30 73 -30 l63 0 -7 32 c-13 65 -148
388 -166 398 -32 17 -104 12 -127 -9z"/>
<path d="M3092 2177 c-14 -18 -52 -95 -52 -106 0 -6 -13 -38 -29 -73 -54 -120
-91 -215 -91 -235 0 -9 18 -13 59 -13 51 0 62 3 75 22 9 12 16 29 16 38 0 8 7
28 15 44 8 15 15 34 15 41 0 7 7 15 15 19 12 4 14 0 9 -22 -4 -15 -10 -34 -15
-42 -10 -19 38 -40 91 -40 32 0 39 -4 50 -30 12 -29 15 -30 71 -30 56 0 59 1
59 25 0 13 -9 44 -20 67 -10 24 -31 75 -45 113 -15 39 -32 84 -40 100 -7 17
-19 49 -26 72 -15 46 -26 52 -100 59 -30 2 -51 -1 -57 -9z"/>
<path d="M3405 2168 c-3 -13 -4 -111 -3 -218 l3 -195 58 -3 57 -3 0 96 c0 52
4 95 9 95 5 0 20 -13 33 -29 139 -171 128 -161 191 -161 75 0 78 16 18 81 -44
48 -56 79 -29 79 34 0 66 119 47 179 -17 55 -23 64 -55 82 -24 14 -56 18 -176
18 -145 1 -148 1 -153 -21z"/>
<path d="M961 1647 c-43 -22 -66 -64 -66 -121 0 -66 19 -103 64 -122 28 -12
39 -12 63 -2 29 13 68 78 68 114 0 38 -22 97 -45 120 -27 27 -48 30 -84 11z"/>
<path d="M1313 1653 c-12 -2 -34 -18 -48 -34 -20 -25 -25 -41 -25 -85 0 -66
20 -108 61 -129 28 -15 33 -15 67 2 44 22 66 63 64 121 -3 86 -52 137 -119
125z"/>
<path d="M408 1603 c-10 -2 -18 -11 -18 -19 0 -15 28 -17 295 -17 142 -1 150
1 150 19 0 18 -10 19 -205 20 -113 1 -213 0 -222 -3z"/>
<path d="M601 1501 c-33 -21 4 -31 120 -31 112 0 119 1 119 20 0 19 -7 20
-112 20 -62 0 -119 -4 -127 -9z"/>
</g>
</svg>
